<svg class="svg-icon" style="width: 1em; height: 1em;vertical-align: middle;fill: currentColor;overflow: hidden;" viewBox="0 0 1024 1024" version="1.1" xmlns="http://www.w3.org/2000/svg"><path d="M576 128c38.4 0 64 25.6 64 64v640c0 38.4-25.6 64-64 64H192c-38.4 0-64-25.6-64-64V192c0-38.4 25.6-64 64-64h384m0-64H192c-70.4 0-128 57.6-128 128v640c0 70.4 57.6 128 128 128h384c70.4 0 128-57.6 128-128V192c0-70.4-57.6-128-128-128z" fill="#333333" /><path d="M576 256h192v512H576z" fill="#FFFFFF" /><path d="M672 256m-32 0a32 32 0 1 0 64 0 32 32 0 1 0-64 0Z" fill="#333333" /><path d="M672 768m-32 0a32 32 0 1 0 64 0 32 32 0 1 0-64 0Z" fill="#333333" /><path d="M288 480h640v64h-640z" fill="#333333" /><path d="M288 512m-32 0a32 32 0 1 0 64 0 32 32 0 1 0-64 0Z" fill="#333333" /><path d="M902.4 486.4l-179.2 179.2c-12.8 12.8-12.8 32 0 44.8 12.8 12.8 32 12.8 44.8 0l179.2-179.2c12.8-12.8 12.8-32 0-44.8-6.4-6.4-32-6.4-44.8 0z" fill="#333333" /><path d="M723.2 307.2c-12.8 12.8-12.8 32 0 44.8l179.2 179.2c12.8 12.8 32 12.8 44.8 0 12.8-12.8 12.8-32 0-44.8L768 307.2c-12.8-12.8-32-12.8-44.8 0z" fill="#333333" /></svg>